<svg width="122" height="27" viewBox="0 0 122 27" fill="none" xmlns="http://www.w3.org/2000/svg">
<path d="M0.307547 21.262C0.446214 20.43 0.61088 19.572 0.801547 18.688C0.992214 17.804 1.26088 16.7553 1.60755 15.542C1.97155 14.3287 2.43955 12.8293 3.01155 11.044C2.75155 11.0613 2.46555 11.0873 2.15355 11.122C1.85888 11.1567 1.58155 11.1827 1.32155 11.2C1.32155 10.6453 1.52955 10.2207 1.94555 9.926C2.36155 9.63133 2.90755 9.41467 3.58355 9.276C3.65288 9.03333 3.71355 8.84267 3.76555 8.704C3.81755 8.56533 3.87821 8.392 3.94755 8.184C4.01688 7.976 4.12088 7.69 4.25955 7.326C4.39821 6.94467 4.58021 6.40733 4.80555 5.714C5.04821 5.02067 5.36021 4.11067 5.74155 2.984C5.77621 2.89733 5.83688 2.724 5.92355 2.464C6.01021 2.204 6.05355 1.96133 6.05355 1.736C6.05355 1.49333 5.94088 1.372 5.71555 1.372C5.36888 1.372 5.01355 1.528 4.64955 1.84C4.30288 2.152 3.98221 2.55067 3.68755 3.036C3.39288 3.504 3.15888 3.998 2.98555 4.518C2.81221 5.02067 2.72555 5.47133 2.72555 5.87C2.72555 6.00867 2.74288 6.16467 2.77755 6.338C2.81221 6.51133 2.88155 6.74533 2.98555 7.04C2.25755 7.04 1.72888 6.884 1.39955 6.572C1.08755 6.24267 0.931547 5.82667 0.931547 5.324C0.931547 4.73467 1.10488 4.14533 1.45155 3.556C1.81555 2.96667 2.27488 2.42933 2.82955 1.944C3.40155 1.44133 3.99955 1.04267 4.62355 0.747999C5.26488 0.435999 5.85421 0.279999 6.39155 0.279999C6.94621 0.279999 7.32755 0.427333 7.53555 0.722C7.74355 1.01667 7.84755 1.346 7.84755 1.71C7.84755 1.90067 7.82155 2.09133 7.76955 2.282C7.73488 2.47267 7.69155 2.65467 7.63955 2.828L5.74155 9.068C5.94955 9.05067 6.15755 9.042 6.36555 9.042C6.59088 9.042 6.81621 9.042 7.04155 9.042C7.89088 9.042 8.68821 9.05933 9.43355 9.094C10.1789 9.12867 10.8982 9.18067 11.5915 9.25C12.0249 7.794 12.3889 6.598 12.6835 5.662C12.9955 4.726 13.2642 3.95467 13.4895 3.348C13.7322 2.724 13.9489 2.178 14.1395 1.71C14.2089 1.57133 14.3042 1.38933 14.4255 1.164C14.5642 0.921332 14.7549 0.713332 14.9975 0.539999C15.2575 0.349333 15.5955 0.254 16.0115 0.254C15.7862 0.860666 15.5089 1.66667 15.1795 2.672C14.8675 3.66 14.5469 4.74333 14.2175 5.922C13.8882 7.08333 13.5762 8.236 13.2815 9.38C13.5242 9.38 13.8622 9.39733 14.2955 9.432C14.7462 9.44933 15.1622 9.458 15.5435 9.458C15.0062 9.99533 14.5295 10.3333 14.1135 10.472C13.6975 10.5933 13.3162 10.654 12.9695 10.654C12.7789 11.4513 12.6055 12.214 12.4495 12.942C12.2935 13.67 12.1635 14.346 12.0595 14.97C11.8515 16.0793 11.6955 17.05 11.5915 17.882C11.5049 18.6967 11.4615 19.364 11.4615 19.884C11.4615 20.1613 11.4702 20.404 11.4875 20.612C11.5222 20.8373 11.5569 21.054 11.5915 21.262C10.7075 21.1753 10.1009 20.9587 9.77155 20.612C9.45955 20.2827 9.30355 19.6933 9.30355 18.844C9.30355 18.4453 9.32955 18.0033 9.38155 17.518C9.45088 17.0327 9.56355 16.4607 9.71955 15.802C9.85821 15.1607 10.0489 14.424 10.2915 13.592C10.5342 12.76 10.8289 11.7893 11.1755 10.68C10.1182 10.68 9.24288 10.6887 8.54955 10.706C7.85621 10.7233 7.24955 10.7407 6.72955 10.758C6.20955 10.7753 5.68955 10.81 5.16955 10.862C5.15221 10.9313 5.10888 11.0787 5.03955 11.304C4.97021 11.5293 4.84888 11.928 4.67555 12.5C4.50221 13.072 4.24221 13.9127 3.89555 15.022C3.54888 16.1313 3.08088 17.622 2.49155 19.494C2.30088 20.1353 1.97155 20.586 1.50355 20.846C1.03555 21.1233 0.63688 21.262 0.307547 21.262ZM16.7316 19.832C15.9516 19.832 15.4143 19.572 15.1196 19.052C14.8423 18.5493 14.7036 17.9947 14.7036 17.388C14.7036 16.8333 14.7903 16.27 14.9636 15.698C15.137 15.1087 15.371 14.5627 15.6656 14.06C15.9776 13.5573 16.3156 13.1587 16.6796 12.864C17.061 12.552 17.4423 12.396 17.8236 12.396C17.945 12.396 18.0836 12.422 18.2396 12.474C18.413 12.5087 18.5343 12.5693 18.6036 12.656C18.3263 13.0027 18.0403 13.4533 17.7456 14.008C17.4683 14.5453 17.2343 15.1087 17.0436 15.698C16.8703 16.2873 16.7836 16.8247 16.7836 17.31C16.7836 17.6567 16.8443 17.9427 16.9656 18.168C17.1043 18.3933 17.3383 18.506 17.6676 18.506C17.997 18.506 18.387 18.324 18.8376 17.96C19.3056 17.5787 19.7476 17.1453 20.1636 16.66C19.609 16.1573 19.2103 15.6113 18.9676 15.022C18.725 14.4153 18.6036 13.6873 18.6036 12.838C18.6036 12.474 18.6903 12.058 18.8636 11.59C19.0543 11.122 19.349 10.7147 19.7476 10.368C20.1636 10.0213 20.7183 9.848 21.4116 9.848C22.157 9.848 22.677 10.056 22.9716 10.472C23.2836 10.888 23.4396 11.382 23.4396 11.954C23.4396 12.5953 23.2663 13.3147 22.9196 14.112C22.5903 14.9093 22.1916 15.6633 21.7236 16.374C21.9316 16.478 22.1743 16.53 22.4516 16.53C22.7116 16.53 23.0236 16.4693 23.3876 16.348C23.7516 16.2267 24.107 16.0273 24.4536 15.75C24.8003 15.4553 25.0776 15.0653 25.2856 14.58L25.7536 14.918C25.3723 15.802 24.861 16.452 24.2196 16.868C23.5956 17.2667 22.9803 17.466 22.3736 17.466C22.1483 17.466 21.923 17.4487 21.6976 17.414C21.4723 17.362 21.2643 17.3013 21.0736 17.232C20.4843 17.9253 19.8083 18.532 19.0456 19.052C18.283 19.572 17.5116 19.832 16.7316 19.832ZM20.8396 15.828C21.2556 15.2213 21.611 14.5713 21.9056 13.878C22.2003 13.1847 22.3476 12.5433 22.3476 11.954C22.3476 11.1913 22.105 10.81 21.6196 10.81C21.2903 10.81 20.9523 11.044 20.6056 11.512C20.259 11.98 20.0856 12.5693 20.0856 13.28C20.0856 13.644 20.1463 14.086 20.2676 14.606C20.4063 15.126 20.597 15.5333 20.8396 15.828ZM26.6135 20.014C25.9721 20.014 25.5215 19.7193 25.2615 19.13C25.0188 18.558 24.8975 17.8127 24.8975 16.894C24.8975 16.7033 24.9061 16.3653 24.9235 15.88C24.9408 15.3773 24.9668 14.684 25.0015 13.8C25.0188 13.28 25.0708 12.9247 25.1575 12.734C25.2615 12.5433 25.5388 12.448 25.9895 12.448C26.4055 12.448 26.6481 12.5347 26.7175 12.708C26.8041 12.864 26.8475 13.1933 26.8475 13.696C26.8475 14.216 26.8215 14.7707 26.7695 15.36C26.7348 15.9493 26.7175 16.5213 26.7175 17.076C26.7175 17.6133 26.7435 18.012 26.7955 18.272C26.8475 18.5147 26.9775 18.636 27.1855 18.636C27.4975 18.636 27.8355 18.4713 28.1995 18.142C28.5635 17.7953 28.9275 17.362 29.2915 16.842C29.6728 16.3047 30.0281 15.7327 30.3575 15.126C30.7041 14.502 31.0075 13.904 31.2675 13.332C31.3021 12.1533 31.4408 11.3647 31.6835 10.966C31.9261 10.5673 32.2381 10.368 32.6195 10.368C33.0528 10.368 33.3475 10.5067 33.5035 10.784C33.6595 11.0613 33.7375 11.304 33.7375 11.512C33.7375 11.772 33.6681 12.006 33.5295 12.214C33.3908 12.422 33.2521 12.708 33.1135 13.072C32.9748 13.436 32.9055 13.9907 32.9055 14.736C32.9055 14.9787 32.9228 15.2473 32.9575 15.542C33.0095 15.8193 33.1135 16.062 33.2695 16.27C33.4428 16.4607 33.6941 16.556 34.0235 16.556C34.3701 16.556 34.6995 16.4173 35.0115 16.14C35.3408 15.8453 35.6875 15.3427 36.0515 14.632L36.3375 14.866C35.9388 15.8193 35.4881 16.4867 34.9855 16.868C34.5001 17.2493 34.0321 17.44 33.5815 17.44C33.0095 17.44 32.5415 17.2147 32.1775 16.764C31.8308 16.296 31.5621 15.7153 31.3715 15.022C30.9555 15.802 30.4788 16.5733 29.9415 17.336C29.4215 18.0987 28.8755 18.7313 28.3035 19.234C27.7315 19.754 27.1681 20.014 26.6135 20.014ZM38.3695 20.144C37.2602 20.144 36.4022 19.8407 35.7955 19.234C35.2062 18.6447 34.9115 17.8993 34.9115 16.998C34.9115 16.2353 35.1022 15.4293 35.4835 14.58C35.8822 13.7133 36.4108 12.9073 37.0695 12.162C37.7282 11.3993 38.4562 10.784 39.2535 10.316C40.0508 9.848 40.8482 9.614 41.6455 9.614C42.0962 9.614 42.5208 9.73533 42.9195 9.978C43.3355 10.2033 43.5435 10.6627 43.5435 11.356C43.5435 12.0147 43.3528 12.63 42.9715 13.202C42.5902 13.774 42.0788 14.2853 41.4375 14.736C40.7962 15.1867 40.0855 15.5593 39.3055 15.854C38.5428 16.1313 37.7715 16.3133 36.9915 16.4C36.9742 16.4693 36.9568 16.5473 36.9395 16.634C36.9395 16.7033 36.9395 16.8247 36.9395 16.998C36.9395 17.0847 36.9482 17.2407 36.9655 17.466C37.0002 17.674 37.0782 17.8993 37.1995 18.142C37.3208 18.3847 37.5202 18.5927 37.7975 18.766C38.0748 18.9393 38.4562 19.026 38.9415 19.026C39.6695 19.026 40.3975 18.8267 41.1255 18.428C41.8708 18.012 42.5642 17.466 43.2055 16.79C43.8642 16.114 44.4102 15.36 44.8435 14.528L45.3635 14.944C44.8955 15.984 44.2888 16.894 43.5435 17.674C42.8155 18.454 42.0008 19.0607 41.0995 19.494C40.2155 19.9273 39.3055 20.144 38.3695 20.144ZM37.2775 15.438C37.7282 15.386 38.2308 15.23 38.7855 14.97C39.3402 14.71 39.8688 14.3807 40.3715 13.982C40.8915 13.5833 41.3162 13.15 41.6455 12.682C41.9748 12.1967 42.1395 11.7113 42.1395 11.226C42.1395 11.0353 42.1048 10.9053 42.0355 10.836C41.9662 10.7667 41.8535 10.732 41.6975 10.732C41.2988 10.732 40.8828 10.8793 40.4495 11.174C40.0162 11.4513 39.5915 11.824 39.1755 12.292C38.7595 12.7427 38.3868 13.2453 38.0575 13.8C37.7282 14.3547 37.4682 14.9007 37.2775 15.438ZM49.0248 19.676C48.3835 19.676 47.8635 19.5027 47.4648 19.156C47.0662 18.8267 46.8668 18.376 46.8668 17.804C46.8668 17.3187 46.9882 16.7987 47.2308 16.244C47.4735 15.6893 47.7162 15.1433 47.9588 14.606C48.2188 14.0687 48.3488 13.592 48.3488 13.176C48.3488 12.7773 48.2188 12.448 47.9588 12.188C47.6988 11.9107 47.3955 11.6853 47.0488 11.512C46.6675 12.4653 46.2342 13.3927 45.7488 14.294C45.2808 15.178 44.8995 15.8713 44.6048 16.374L44.2148 15.62C44.4575 15.1693 44.7782 14.528 45.1768 13.696C45.5755 12.864 45.9568 11.9367 46.3208 10.914C46.1475 10.7407 46.0608 10.5067 46.0608 10.212C46.0608 9.76133 46.1995 9.33667 46.4768 8.938C46.7542 8.53933 47.0228 8.34 47.2828 8.34C47.4908 8.34 47.6382 8.46133 47.7248 8.704C47.8288 8.92933 47.8808 9.08533 47.8808 9.172C47.8808 9.25867 47.8375 9.41467 47.7508 9.64C47.6815 9.86533 47.6295 10.03 47.5948 10.134C47.6122 10.3247 47.7595 10.5153 48.0368 10.706C48.3315 10.8793 48.6608 11.0873 49.0248 11.33C49.3888 11.5727 49.7095 11.876 49.9868 12.24C50.2642 12.604 50.4028 13.0633 50.4028 13.618C50.4028 14.1207 50.2902 14.632 50.0648 15.152C49.8395 15.672 49.6142 16.1573 49.3888 16.608C49.1635 17.0587 49.0508 17.4487 49.0508 17.778C49.0508 18.0207 49.1115 18.1853 49.2328 18.272C49.3715 18.3413 49.5275 18.376 49.7008 18.376C50.1168 18.376 50.5502 18.2547 51.0008 18.012C51.4515 17.752 51.8935 17.4227 52.3268 17.024C52.7602 16.6253 53.1415 16.2093 53.4708 15.776C53.8002 15.3253 54.0515 14.918 54.2248 14.554L54.8488 15.022C54.5195 15.7673 54.0428 16.504 53.4188 17.232C52.7948 17.9427 52.1015 18.532 51.3388 19C50.5762 19.4507 49.8048 19.676 49.0248 19.676ZM63.4301 20.144C62.3207 20.144 61.4627 19.8407 60.8561 19.234C60.2667 18.6447 59.9721 17.8993 59.9721 16.998C59.9721 16.2353 60.1627 15.4293 60.5441 14.58C60.9427 13.7133 61.4714 12.9073 62.1301 12.162C62.7887 11.3993 63.5167 10.784 64.3141 10.316C65.1114 9.848 65.9087 9.614 66.7061 9.614C67.1567 9.614 67.5814 9.73533 67.9801 9.978C68.3961 10.2033 68.6041 10.6627 68.6041 11.356C68.6041 12.0147 68.4134 12.63 68.0321 13.202C67.6507 13.774 67.1394 14.2853 66.4981 14.736C65.8567 15.1867 65.1461 15.5593 64.3661 15.854C63.6034 16.1313 62.8321 16.3133 62.0521 16.4C62.0347 16.4693 62.0174 16.5473 62.0001 16.634C62.0001 16.7033 62.0001 16.8247 62.0001 16.998C62.0001 17.0847 62.0087 17.2407 62.0261 17.466C62.0607 17.674 62.1387 17.8993 62.2601 18.142C62.3814 18.3847 62.5807 18.5927 62.8581 18.766C63.1354 18.9393 63.5167 19.026 64.0021 19.026C64.7301 19.026 65.4581 18.8267 66.1861 18.428C66.9314 18.012 67.6247 17.466 68.2661 16.79C68.9247 16.114 69.4707 15.36 69.9041 14.528L70.4241 14.944C69.9561 15.984 69.3494 16.894 68.6041 17.674C67.8761 18.454 67.0614 19.0607 66.1601 19.494C65.2761 19.9273 64.3661 20.144 63.4301 20.144ZM62.3381 15.438C62.7887 15.386 63.2914 15.23 63.8461 14.97C64.4007 14.71 64.9294 14.3807 65.4321 13.982C65.9521 13.5833 66.3767 13.15 66.7061 12.682C67.0354 12.1967 67.2001 11.7113 67.2001 11.226C67.2001 11.0353 67.1654 10.9053 67.0961 10.836C67.0267 10.7667 66.9141 10.732 66.7581 10.732C66.3594 10.732 65.9434 10.8793 65.5101 11.174C65.0767 11.4513 64.6521 11.824 64.2361 12.292C63.8201 12.7427 63.4474 13.2453 63.1181 13.8C62.7887 14.3547 62.5287 14.9007 62.3381 15.438ZM69.2494 26.28C69.0587 26.28 68.8334 26.2193 68.5734 26.098C68.2961 25.9767 68.0621 25.734 67.8714 25.37C67.6634 25.0233 67.5594 24.4947 67.5594 23.784C67.5594 23.0387 67.6894 22.0593 67.9494 20.846C68.1921 19.65 68.5387 18.324 68.9894 16.868C69.4227 15.3947 69.9341 13.8867 70.5234 12.344C71.1301 10.8013 71.7714 9.31933 72.4474 7.898C73.1407 6.45933 73.8514 5.168 74.5794 4.024C75.3247 2.88 76.0614 1.97 76.7894 1.294C77.5174 0.617999 78.2194 0.279999 78.8954 0.279999C79.3461 0.279999 79.6407 0.418666 79.7794 0.695999C79.9181 0.955999 79.9874 1.25933 79.9874 1.606C79.9874 2.35133 79.7794 3.166 79.3634 4.05C78.9647 4.934 78.4274 5.82667 77.7514 6.728C77.0754 7.612 76.3127 8.45267 75.4634 9.25C74.6314 10.0473 73.7734 10.732 72.8894 11.304C72.8201 11.4773 72.7507 11.6507 72.6814 11.824C72.6121 11.9973 72.5427 12.1707 72.4734 12.344C72.6641 12.4133 72.8114 12.5347 72.9154 12.708C73.0367 12.8813 73.1061 13.0633 73.1234 13.254C73.2621 13.9993 73.4007 14.6667 73.5394 15.256C73.6781 15.828 73.8861 16.2787 74.1634 16.608C74.4581 16.9373 74.8741 17.102 75.4114 17.102C76.0181 17.102 76.5554 16.8767 77.0234 16.426C77.4914 15.9753 77.9681 15.3427 78.4534 14.528L79.0254 14.944C78.4707 16.0533 77.8467 16.868 77.1534 17.388C76.4601 17.8907 75.8361 18.142 75.2814 18.142C74.6921 18.142 74.0767 17.908 73.4354 17.44C73.4181 18.5147 73.2881 19.572 73.0454 20.612C72.8201 21.6693 72.5081 22.6227 72.1094 23.472C71.7107 24.3213 71.2601 24.9973 70.7574 25.5C70.2721 26.02 69.7694 26.28 69.2494 26.28ZM73.6434 9.484C74.7007 8.496 75.6021 7.534 76.3474 6.598C77.0927 5.662 77.6561 4.83867 78.0374 4.128C78.4361 3.4 78.6354 2.88867 78.6354 2.594C78.6354 2.45533 78.5661 2.386 78.4274 2.386C78.0114 2.386 77.5347 2.70667 76.9974 3.348C76.4601 3.972 75.9054 4.82133 75.3334 5.896C74.7614 6.97067 74.1981 8.16667 73.6434 9.484ZM69.9774 24.668C70.2201 24.668 70.4801 24.4167 70.7574 23.914C71.0347 23.4113 71.2947 22.7787 71.5374 22.016C71.7801 21.2533 71.9794 20.456 72.1354 19.624C72.2914 18.8093 72.3694 18.0813 72.3694 17.44C72.3694 16.9373 72.3087 16.4953 72.1874 16.114C72.0834 15.7153 71.8927 15.2733 71.6154 14.788C71.0087 16.5907 70.5147 18.272 70.1334 19.832C69.7521 21.392 69.5614 22.6313 69.5614 23.55C69.5614 24.2953 69.7001 24.668 69.9774 24.668ZM77.8314 26.28C77.6408 26.28 77.4154 26.2193 77.1554 26.098C76.8781 25.9767 76.6441 25.734 76.4534 25.37C76.2454 25.0233 76.1414 24.4947 76.1414 23.784C76.1414 23.0387 76.2714 22.0593 76.5314 20.846C76.7741 19.65 77.1208 18.324 77.5714 16.868C78.0048 15.3947 78.5161 13.8867 79.1054 12.344C79.7121 10.8013 80.3534 9.31933 81.0294 7.898C81.7228 6.45933 82.4334 5.168 83.1614 4.024C83.9068 2.88 84.6434 1.97 85.3714 1.294C86.0994 0.617999 86.8014 0.279999 87.4774 0.279999C87.9281 0.279999 88.2228 0.418666 88.3614 0.695999C88.5001 0.955999 88.5694 1.25933 88.5694 1.606C88.5694 2.35133 88.3614 3.166 87.9454 4.05C87.5468 4.934 87.0094 5.82667 86.3334 6.728C85.6574 7.612 84.8948 8.45267 84.0454 9.25C83.2134 10.0473 82.3554 10.732 81.4714 11.304C81.4021 11.4773 81.3328 11.6507 81.2634 11.824C81.1941 11.9973 81.1248 12.1707 81.0554 12.344C81.2461 12.4133 81.3934 12.5347 81.4974 12.708C81.6188 12.8813 81.6881 13.0633 81.7054 13.254C81.8441 13.9993 81.9828 14.6667 82.1214 15.256C82.2601 15.828 82.4681 16.2787 82.7454 16.608C83.0401 16.9373 83.4561 17.102 83.9934 17.102C84.6001 17.102 85.1374 16.8767 85.6054 16.426C86.0734 15.9753 86.5501 15.3427 87.0354 14.528L87.6074 14.944C87.0528 16.0533 86.4288 16.868 85.7354 17.388C85.0421 17.8907 84.4181 18.142 83.8634 18.142C83.2741 18.142 82.6588 17.908 82.0174 17.44C82.0001 18.5147 81.8701 19.572 81.6274 20.612C81.4021 21.6693 81.0901 22.6227 80.6914 23.472C80.2928 24.3213 79.8421 24.9973 79.3394 25.5C78.8541 26.02 78.3514 26.28 77.8314 26.28ZM82.2254 9.484C83.2828 8.496 84.1841 7.534 84.9294 6.598C85.6748 5.662 86.2381 4.83867 86.6194 4.128C87.0181 3.4 87.2174 2.88867 87.2174 2.594C87.2174 2.45533 87.1481 2.386 87.0094 2.386C86.5934 2.386 86.1168 2.70667 85.5794 3.348C85.0421 3.972 84.4874 4.82133 83.9154 5.896C83.3434 6.97067 82.7801 8.16667 82.2254 9.484ZM78.5594 24.668C78.8021 24.668 79.0621 24.4167 79.3394 23.914C79.6168 23.4113 79.8768 22.7787 80.1194 22.016C80.3621 21.2533 80.5614 20.456 80.7174 19.624C80.8734 18.8093 80.9514 18.0813 80.9514 17.44C80.9514 16.9373 80.8908 16.4953 80.7694 16.114C80.6654 15.7153 80.4748 15.2733 80.1974 14.788C79.5908 16.5907 79.0968 18.272 78.7154 19.832C78.3341 21.392 78.1434 22.6313 78.1434 23.55C78.1434 24.2953 78.2821 24.668 78.5594 24.668ZM89.4555 20.144C88.3461 20.144 87.4881 19.8407 86.8815 19.234C86.2921 18.6447 85.9975 17.8993 85.9975 16.998C85.9975 16.2353 86.1881 15.4293 86.5695 14.58C86.9681 13.7133 87.4968 12.9073 88.1555 12.162C88.8141 11.3993 89.5421 10.784 90.3395 10.316C91.1368 9.848 91.9341 9.614 92.7315 9.614C93.1821 9.614 93.6068 9.73533 94.0055 9.978C94.4215 10.2033 94.6295 10.6627 94.6295 11.356C94.6295 12.0147 94.4388 12.63 94.0575 13.202C93.6761 13.774 93.1648 14.2853 92.5235 14.736C91.8821 15.1867 91.1715 15.5593 90.3915 15.854C89.6288 16.1313 88.8575 16.3133 88.0775 16.4C88.0601 16.4693 88.0428 16.5473 88.0255 16.634C88.0255 16.7033 88.0255 16.8247 88.0255 16.998C88.0255 17.0847 88.0341 17.2407 88.0515 17.466C88.0861 17.674 88.1641 17.8993 88.2855 18.142C88.4068 18.3847 88.6061 18.5927 88.8835 18.766C89.1608 18.9393 89.5421 19.026 90.0275 19.026C90.7555 19.026 91.4835 18.8267 92.2115 18.428C92.9568 18.012 93.6501 17.466 94.2915 16.79C94.9501 16.114 95.4961 15.36 95.9295 14.528L96.4495 14.944C95.9815 15.984 95.3748 16.894 94.6295 17.674C93.9015 18.454 93.0868 19.0607 92.1855 19.494C91.3015 19.9273 90.3915 20.144 89.4555 20.144ZM88.3635 15.438C88.8141 15.386 89.3168 15.23 89.8715 14.97C90.4261 14.71 90.9548 14.3807 91.4575 13.982C91.9775 13.5833 92.4021 13.15 92.7315 12.682C93.0608 12.1967 93.2255 11.7113 93.2255 11.226C93.2255 11.0353 93.1908 10.9053 93.1215 10.836C93.0521 10.7667 92.9395 10.732 92.7835 10.732C92.3848 10.732 91.9688 10.8793 91.5355 11.174C91.1021 11.4513 90.6775 11.824 90.2615 12.292C89.8455 12.7427 89.4728 13.2453 89.1435 13.8C88.8141 14.3547 88.5541 14.9007 88.3635 15.438ZM98.2388 20.456C97.3374 20.456 96.5921 20.17 96.0028 19.598C95.4308 19.0433 95.1448 18.1853 95.1448 17.024C95.1448 16.1747 95.3094 15.3427 95.6388 14.528C95.9681 13.7133 96.4101 12.9853 96.9648 12.344C97.5194 11.6853 98.1348 11.1653 98.8108 10.784C99.5041 10.4027 100.206 10.212 100.917 10.212C101.645 10.212 102.165 10.394 102.477 10.758C102.806 11.122 102.971 11.5467 102.971 12.032C102.971 12.5173 102.849 12.994 102.607 13.462C102.381 13.9127 102.069 14.138 101.671 14.138C101.341 14.138 101.073 13.9733 100.865 13.644C101.038 13.5227 101.22 13.2973 101.411 12.968C101.601 12.6387 101.697 12.214 101.697 11.694C101.697 11.3993 101.532 11.252 101.203 11.252C100.769 11.252 100.31 11.4513 99.8248 11.85C99.3568 12.2313 98.9148 12.734 98.4988 13.358C98.1001 13.9647 97.7708 14.6147 97.5108 15.308C97.2681 15.984 97.1468 16.608 97.1468 17.18C97.1468 17.6653 97.2681 18.116 97.5108 18.532C97.7708 18.9307 98.2648 19.13 98.9928 19.13C99.6514 19.13 100.336 18.9393 101.047 18.558C101.757 18.1767 102.425 17.648 103.049 16.972C103.673 16.2787 104.175 15.4553 104.557 14.502L105.077 14.97C104.661 16.0273 104.08 16.972 103.335 17.804C102.607 18.6187 101.792 19.26 100.891 19.728C100.007 20.2133 99.1228 20.456 98.2388 20.456ZM106.325 20.196C105.562 20.196 104.947 19.9707 104.479 19.52C104.011 19.0693 103.777 18.3847 103.777 17.466C103.777 16.7553 103.907 15.8713 104.167 14.814C104.444 13.7567 104.791 12.6647 105.207 11.538C105.086 11.5033 104.938 11.4773 104.765 11.46C104.609 11.4253 104.453 11.3733 104.297 11.304V10.498C104.574 10.5327 104.8 10.5587 104.973 10.576C105.164 10.5933 105.354 10.6107 105.545 10.628C105.909 9.70933 106.299 8.82533 106.715 7.976C107.148 7.10933 107.573 6.338 107.989 5.662C108.422 4.986 108.83 4.45733 109.211 4.076C109.592 3.67733 109.93 3.478 110.225 3.478C110.398 3.478 110.563 3.54733 110.719 3.686C110.875 3.80733 110.953 3.98933 110.953 4.232C110.953 4.57867 110.771 5.07267 110.407 5.714C110.06 6.35533 109.627 7.10933 109.107 7.976C108.587 8.82533 108.084 9.73533 107.599 10.706H108.405C109.168 10.706 109.852 10.6973 110.459 10.68C111.083 10.6453 111.716 10.5933 112.357 10.524V11.382C111.404 11.4687 110.528 11.538 109.731 11.59C108.934 11.642 108.171 11.6767 107.443 11.694H107.131C106.767 12.5433 106.446 13.4187 106.169 14.32C105.909 15.204 105.779 16.0707 105.779 16.92C105.779 17.6307 105.892 18.1333 106.117 18.428C106.342 18.7227 106.698 18.87 107.183 18.87C108.05 18.87 108.934 18.48 109.835 17.7C110.754 16.9027 111.551 15.828 112.227 14.476L112.591 14.736C112.14 15.7587 111.577 16.686 110.901 17.518C110.242 18.35 109.523 19 108.743 19.468C107.963 19.9533 107.157 20.196 106.325 20.196ZM114.491 20.326C113.625 20.326 112.923 20.144 112.385 19.78C111.865 19.4333 111.493 18.9913 111.267 18.454C111.042 17.8993 110.929 17.336 110.929 16.764C110.929 16.2613 110.999 15.8713 111.137 15.594C111.276 15.3167 111.449 15.1173 111.657 14.996C111.865 14.8573 112.056 14.7533 112.229 14.684C112.42 14.6147 112.559 14.5367 112.645 14.45C113.079 13.9993 113.521 13.4793 113.971 12.89C114.439 12.2833 114.838 11.616 115.167 10.888V10.628C115.167 9.93467 115.28 9.44933 115.505 9.172C115.748 8.87733 116.025 8.73 116.337 8.73C116.545 8.73 116.693 8.782 116.779 8.886C116.883 8.99 116.944 9.11133 116.961 9.25C116.961 9.354 116.935 9.47533 116.883 9.614C116.849 9.75267 116.831 9.94333 116.831 10.186C116.831 10.706 116.953 11.304 117.195 11.98C117.455 12.6387 117.707 13.3407 117.949 14.086C118.209 14.8313 118.339 15.594 118.339 16.374C118.339 16.582 118.331 16.7727 118.313 16.946C118.296 17.1193 118.27 17.284 118.235 17.44C118.773 17.3013 119.301 17.0067 119.821 16.556C120.341 16.088 120.835 15.4033 121.303 14.502L121.615 14.736C121.286 15.724 120.809 16.5213 120.185 17.128C119.561 17.7173 118.833 18.0813 118.001 18.22C117.724 18.9307 117.265 19.4593 116.623 19.806C115.999 20.1527 115.289 20.326 114.491 20.326ZM116.181 17.388C116.216 17.2667 116.233 17.128 116.233 16.972C116.251 16.7987 116.259 16.6687 116.259 16.582C116.242 15.802 116.138 15.0307 115.947 14.268C115.757 13.5053 115.566 12.7253 115.375 11.928C115.063 12.4653 114.699 13.046 114.283 13.67C113.867 14.294 113.477 14.7967 113.113 15.178C113.391 15.646 113.798 16.088 114.335 16.504C114.873 16.92 115.488 17.2147 116.181 17.388ZM114.309 19.182C114.656 19.182 114.977 19.0953 115.271 18.922C115.566 18.7487 115.8 18.4973 115.973 18.168C115.263 18.012 114.621 17.7347 114.049 17.336C113.477 16.9373 113.035 16.53 112.723 16.114C112.481 16.166 112.359 16.4 112.359 16.816C112.359 17.388 112.524 17.9253 112.853 18.428C113.183 18.9307 113.668 19.182 114.309 19.182Z" fill="black"/>
</svg>
