<svg width="25" height="23" viewBox="0 0 25 23" fill="none" xmlns="http://www.w3.org/2000/svg">
<path d="M21.708 1.63727C20.4366 0.402811 18.3778 0.402811 17.1064 1.63727L15.9545 2.76381L3.69271 14.6841L3.66665 14.7096C3.66034 14.7157 3.66034 14.7223 3.65362 14.7223C3.64059 14.7413 3.62104 14.7601 3.60822 14.7791C3.60822 14.7854 3.6015 14.7854 3.6015 14.7918C3.58847 14.8108 3.58216 14.8235 3.56893 14.8425C3.56262 14.8488 3.56262 14.855 3.5561 14.8615C3.54959 14.8805 3.54307 14.8932 3.53635 14.9122C3.53635 14.9183 3.53004 14.9183 3.53004 14.9249L0.809524 22.8821C0.729718 23.1087 0.790387 23.3595 0.965674 23.5277C1.08884 23.6459 1.25497 23.712 1.42781 23.7114C1.49846 23.7102 1.56849 23.6995 1.63608 23.6797L9.81067 21.0273C9.81698 21.0273 9.81698 21.0273 9.8237 21.0211C9.84426 21.0152 9.86401 21.0067 9.88212 20.9956C9.88721 20.995 9.89169 20.9928 9.89536 20.9894C9.9147 20.9768 9.94076 20.9639 9.9603 20.9512C9.97964 20.9387 9.99939 20.9197 10.0189 20.9071C10.0254 20.9005 10.0318 20.9005 10.0318 20.8944C10.0385 20.888 10.0515 20.8819 10.058 20.869L23.4717 7.82205C24.7408 6.58541 24.7408 4.58283 23.4717 3.34639L21.708 1.63727ZM9.6024 19.5395L5.07261 15.1338L16.4101 4.10619L20.9399 8.51195L9.6024 19.5395ZM4.43457 16.3049L8.39188 20.1538L2.44961 22.0781L4.43457 16.3049ZM22.5541 6.93571L21.8642 7.61314L17.3342 3.20698L18.0309 2.52975C18.7929 1.78915 20.028 1.78915 20.7903 2.52975L22.5604 4.25154C23.3168 4.9961 23.3139 6.19472 22.5541 6.93571Z" fill="#FFE600"/>
</svg>
